# xmcd CD database file
#
# Track frame offsets:
#	150
#	15127
#	28627
#	45585
#	60623
#	76665
#	96452
#	113806
#	128323
#	146145
#	162920
#	177737
#
# Disc length: 2655 seconds
#
# Revision: 3
# Processed by: cddbd v1.5.2PL0 Copyright (c) Steve Scherf et al.
# Submitted via: CDex 1.78
#
DISCID=910a5d0c
DTITLE=Craig Morgan - The Journey (Livin' Hits)
DYEAR=2013
DGENRE=Country
TTITLE0=Wake Up Lovin' You
TTITLE1=We'll Come Back Around
TTITLE2=Party Girl
TTITLE3=If Not Me
TTITLE4=More Trucks Than Cars
TTITLE5=This Ole Boy
TTITLE6=International Harvester
TTITLE7=Tough
TTITLE8=Little Bit Of Life
TTITLE9=Redneck Yacht Club
TTITLE10=That's What I Love About Sunday
TTITLE11=Almost Home
EXTD=YEAR: 2013
EXTT0=
EXTT1=
EXTT2=
EXTT3=
EXTT4=
EXTT5=
EXTT6=
EXTT7=
EXTT8=
EXTT9=
EXTT10=
EXTT11=
PLAYORDER=
